<svg width="56" height="57" viewBox="0 0 56 57" fill="none" xmlns="http://www.w3.org/2000/svg">
<g clip-path="url(#clip0_1_39)" filter="url(#filter0_d_1_39)">
<g filter="url(#filter1_d_1_39)">
<path fill-rule="evenodd" clip-rule="evenodd" d="M28 49C41.2549 49 52 38.031 52 24.5C52 10.969 41.2549 0 28 0C14.7451 0 4 10.969 4 24.5C4 38.031 14.7451 49 28 49ZM35.4871 11.4132C35.8516 10.0916 34.5954 9.31016 33.448 10.1446L17.4317 21.7922C16.1875 22.6971 16.3832 24.5 17.7257 24.5H21.9433V24.4666H30.1631L23.4654 26.8789L20.5129 37.5869C20.1484 38.9085 21.4046 39.6898 22.552 38.8554L38.5682 27.2078C39.8126 26.3029 39.6167 24.5 38.2742 24.5H31.8786L35.4871 11.4132Z" fill="#4FBF8B"/>
<path d="M28 0.5C40.969 0.5 51.5 11.2354 51.5 24.5C51.5 37.7646 40.969 48.5 28 48.5C15.031 48.5 4.5 37.7646 4.5 24.5C4.5 11.2354 15.031 0.5 28 0.5ZM35.2988 9.5459C34.7201 9.18591 33.9607 9.22096 33.2871 9.64941L33.1543 9.74023L17.1377 21.3877C16.3786 21.9397 16.0299 22.7878 16.1113 23.5391C16.1523 23.9167 16.3049 24.2855 16.5889 24.5625C16.878 24.8446 17.2712 25 17.7256 25H22.4434V24.9668H27.2979L23.2959 26.4082L23.0518 26.4961L22.9834 26.7461L20.0312 37.4541C19.7997 38.2937 20.0724 39.0629 20.7012 39.4541C21.2799 39.8141 22.0393 39.779 22.7129 39.3506L22.8457 39.2598L38.8623 27.6123C39.6214 27.0603 39.9701 26.2122 39.8887 25.4609C39.8477 25.0833 39.695 24.7145 39.4111 24.4375C39.122 24.1554 38.7287 24 38.2744 24H32.5352L35.9688 11.5459C36.2003 10.7063 35.9276 9.93714 35.2988 9.5459Z" stroke="#4FBF8B"/>
</g>
</g>
<defs>
<clipPath id="clip0_1_39">
<rect width="48" height="49" fill="white" transform="translate(4)"/>
</clipPath>
</defs>
</svg>
